# xmcd CD database file
# Copyright (C) 1993-1998 Ti Kan
#
# Track frame offsets:
#  150
#  20210
#  43647
#  58135
#  80387
#  98333
#  123873
#  146451
#  167835
#
# Disc length: 2526 seconds
#
# Revision: 1
# Processed by: cddbd v1.4b41PL1 Copyright (c) Steve Scherf et al.
# Submitted via: CDWizzard Release:4.35
#
DISCID=6f09dc09
DTITLE=Johnny G. Lyon Band - Give The Kid A Chance!
DYEAR=1900
DGENRE=
TTITLE0=Let It Be a Natural Thing
TTITLE1=Who's That Stranger 
TTITLE2=Rule of Thumg
TTITLE3=I Played The Little Girl's Game
TTITLE4=Come Again
TTITLE5=Lookin' For Happiness
TTITLE6=Call Me Lover Boy #2
TTITLE7=Piece of Heaven
TTITLE8=Strange Days Have Just Begun
EXTD=
EXTT0=
EXTT1=
EXTT2=
EXTT3=
EXTT4=
EXTT5=
EXTT6=
EXTT7=
EXTT8=
PLAYORDER=
